<?xml version="1.0" encoding="UTF-8"?> <svg xmlns="http://www.w3.org/2000/svg" width="81" height="80" viewBox="0 0 81 80" fill="none"> <path d="M25.1255 27.0723C24.6334 26.5802 23.919 26.3579 23.2363 26.4691C22.5537 26.5802 21.9505 27.0406 21.6488 27.6597L0.566667 71.6655C0.550792 71.6973 0.534917 71.729 0.519042 71.7608C-0.465215 74.1262 -0.036587 76.5709 1.6938 78.3013C2.80506 79.4126 4.20207 80 5.74196 80C6.56746 80 7.40884 79.8253 8.23435 79.492C8.2661 79.4761 8.29785 79.4602 8.34548 79.4443L52.3513 58.3463C52.9863 58.0447 53.4308 57.4573 53.5419 56.7588C53.6531 56.0762 53.4308 55.3618 52.9387 54.8697L25.1255 27.0723ZM20.6963 39.6295L24.2206 32.2794L38.0002 46.059C32.6662 45.5033 26.8559 43.3443 20.6963 39.6295ZM29.8245 59.1718C29.2848 59.3941 28.872 59.8068 28.6656 60.3466C28.2053 61.442 28.745 62.712 29.8404 63.1565C30.2849 63.347 30.7453 63.5216 31.1898 63.6962L20.3629 68.8874C16.9815 66.8395 13.5684 64.3788 10.2029 61.5372L13.9653 53.679C15.0924 54.5522 16.2354 55.3935 17.3467 56.1873C17.7118 56.4413 18.1404 56.5842 18.5849 56.5842C19.2834 56.5842 19.9502 56.2349 20.3471 55.6634C20.6804 55.1872 20.8074 54.6157 20.7122 54.0441C20.6169 53.4726 20.2994 52.9805 19.8232 52.6471C18.5214 51.7264 17.1879 50.7421 15.8703 49.6944L18.8231 43.5507C26.586 48.1703 33.9362 50.504 40.6831 50.504C41.2546 50.504 41.8261 50.4881 42.3976 50.4564L47.7158 55.7745L36.8572 60.9816C35.0951 60.5371 33.2853 59.9338 31.4755 59.1718C30.9516 58.9496 30.3643 58.9496 29.8245 59.1718ZM4.74182 75.2533C4.28145 74.7929 4.18619 74.1897 4.48782 73.4594L8.28198 65.5377C10.7585 67.5856 13.2826 69.443 15.775 71.0781L6.53571 75.5073C5.80546 75.8089 5.2022 75.7137 4.74182 75.2533Z" fill="#ED602D"></path> <path fill-rule="evenodd" clip-rule="evenodd" d="M24.5951 27.6026C24.2775 27.285 23.8069 27.136 23.3568 27.2093C22.9225 27.28 22.5225 27.5806 22.3241 27.9862C22.3237 27.9868 22.3234 27.9875 22.3231 27.9882L1.23758 72.001L1.2018 72.0723C0.33795 74.1708 0.730005 76.2769 2.22413 77.771C3.19842 78.7453 4.40613 79.25 5.74196 79.25C6.45287 79.25 7.19015 79.1013 7.9275 78.807C7.95845 78.7919 8.00167 78.7718 8.05597 78.7514L52.0295 57.6688C52.4433 57.4723 52.7294 57.0929 52.8013 56.641L52.8017 56.6383C52.8749 56.1883 52.726 55.7178 52.4085 55.4001C52.4085 55.4001 52.4086 55.4002 52.4085 55.4001L24.5951 27.6026ZM52.9387 54.8697C53.4308 55.3618 53.6531 56.0762 53.5419 56.7588C53.4308 57.4573 52.9863 58.0447 52.3513 58.3463L8.34548 79.4443C8.29785 79.4602 8.2661 79.4761 8.23435 79.492C7.40884 79.8253 6.56746 80 5.74196 80C4.20207 80 2.80506 79.4126 1.6938 78.3013C-0.036587 76.5709 -0.465215 74.1262 0.519042 71.7608L0.566667 71.6655L21.6488 27.6597C21.9505 27.0406 22.5537 26.5802 23.2363 26.4691C23.919 26.3579 24.6334 26.5802 25.1255 27.0723L52.9387 54.8697ZM19.7254 39.9198L24.0021 31.0002L40.0259 47.024L37.9225 46.8049C32.4482 46.2347 26.5323 44.025 20.309 40.2718L19.7254 39.9198ZM29.3618 60.6259L29.357 60.6372C29.0608 61.342 29.4088 62.1719 30.1224 62.4615L30.1291 62.4642L30.1358 62.4671C30.4703 62.6105 30.8117 62.7435 31.1611 62.8797C31.2614 62.9188 31.3624 62.9582 31.464 62.9982L33.067 63.6279L20.3214 69.7391L19.9744 69.5289C16.557 67.4592 13.1121 64.9752 9.71902 62.1103L9.27604 61.7362L13.69 52.5171L14.4246 53.0861C15.5409 53.9508 16.6744 54.7853 17.7785 55.574C18.0251 55.7446 18.3044 55.8342 18.5849 55.8342C19.0378 55.8342 19.4744 55.6052 19.731 55.2356L19.7326 55.2333C19.9522 54.9196 20.0357 54.5471 19.9724 54.1674C19.9113 53.8007 19.7095 53.483 19.3931 53.2616L19.3901 53.2595C18.08 52.3328 16.7347 51.34 15.4035 50.2814L14.935 49.9089L18.5022 42.487L19.2066 42.9062C26.8912 47.4792 34.1091 49.754 40.6831 49.754C41.2407 49.754 41.7983 49.7385 42.356 49.7075L42.6908 49.6889L48.9949 55.9929L36.9368 61.7752L36.6737 61.7088C34.874 61.2548 33.0283 60.6394 31.1845 59.863L31.1826 59.8622C30.8487 59.7206 30.4697 59.7172 30.1101 59.8653C29.7536 60.0121 29.4958 60.2754 29.3662 60.6144L29.3618 60.6259ZM17.3467 56.1873C16.4348 55.536 15.5016 54.8526 14.5733 54.1459C14.3703 53.9913 14.1675 53.8357 13.9653 53.679L10.2029 61.5372C13.5684 64.3788 16.9815 66.8395 20.3629 68.8874L31.1898 63.6962C31.0924 63.658 30.9943 63.6197 30.8957 63.5813C30.677 63.4961 30.4563 63.41 30.237 63.3213C30.104 63.2675 29.9715 63.2127 29.8404 63.1565C28.745 62.712 28.2053 61.442 28.6656 60.3466C28.872 59.8068 29.2848 59.3941 29.8245 59.1718C30.3643 58.9496 30.9516 58.9496 31.4755 59.1718C33.2853 59.9338 35.0951 60.5371 36.8572 60.9816L47.7158 55.7745L42.3976 50.4564C41.8261 50.4881 41.2546 50.504 40.6831 50.504C34.1244 50.504 26.9957 48.2988 19.4719 43.932C19.2559 43.8067 19.0397 43.6796 18.8231 43.5507L15.8703 49.6944C17.1879 50.7421 18.5214 51.7264 19.8232 52.6471C20.2994 52.9805 20.6169 53.4726 20.7122 54.0441C20.8074 54.6157 20.6804 55.1872 20.3471 55.6634C19.9502 56.2349 19.2834 56.5842 18.5849 56.5842C18.1404 56.5842 17.7118 56.4413 17.3467 56.1873ZM3.8025 73.154L8.0202 64.348L8.75992 64.9597C11.2154 66.9903 13.7174 68.8312 16.1864 70.4511L17.2976 71.18L6.84121 76.1926L6.82203 76.2005C6.36592 76.3889 5.89455 76.476 5.42943 76.4082C4.95544 76.3392 4.54513 76.1173 4.21149 75.7836C3.87786 75.45 3.65597 75.0397 3.58691 74.5657C3.51914 74.1006 3.60623 73.6292 3.79463 73.1731L3.8025 73.154ZM36.7867 45.9061C31.7888 45.1692 26.3919 43.0645 20.6963 39.6295L24.2206 32.2794L38.0002 46.059C37.5984 46.0171 37.1939 45.9662 36.7867 45.9061ZM6.53571 75.5073C5.80546 75.8089 5.2022 75.7137 4.74182 75.2533C4.28145 74.7929 4.18619 74.1897 4.48782 73.4594L8.28198 65.5377C8.48074 65.7021 8.67982 65.8652 8.87916 66.0271C10.9221 67.6863 12.993 69.2149 15.0476 70.5952C15.2903 70.7582 15.5328 70.9192 15.775 71.0781L6.53571 75.5073Z" fill="#181B1B"></path> <path d="M29.9036 18.8491L30.0782 19.0078C30.2052 19.1189 30.4116 19.3095 30.5862 19.4841C30.4116 19.6428 30.2211 19.8175 30.0782 19.9445C28.9669 20.9605 28.316 22.3257 28.2525 23.8339C28.189 25.3261 28.697 26.7708 29.7131 27.882C30.7291 28.9933 32.1102 29.6442 33.6025 29.7077C33.6977 29.7077 33.7771 29.7077 33.8723 29.7077C35.2693 29.7077 36.6029 29.1838 37.6506 28.2471C38.492 27.4851 39.4286 26.6279 40.3176 25.3261C41.5241 23.5322 42.1274 21.6272 42.1274 19.4841C42.1274 14.7692 39.7461 12.6101 37.6506 10.7051C37.5236 10.594 37.3172 10.4035 37.1426 10.2289C37.3172 10.0701 37.5077 9.8955 37.6506 9.7685C38.7619 8.76837 39.4128 7.38723 39.4763 5.8791C39.5398 4.38684 39.0317 2.9422 38.0157 1.83094C36.9997 0.719683 35.6186 0.0688031 34.1263 0.00530265C32.6341 -0.0581978 31.1894 0.449806 30.0941 1.46581C29.2527 2.22782 28.316 3.08508 27.427 4.38684C26.2205 6.18073 25.6173 8.08574 25.6173 10.2289C25.6014 14.8009 27.8557 16.9758 29.9036 18.8491ZM33.0151 4.60909C33.2691 4.40271 33.5866 4.29159 33.9041 4.30746C34.2533 4.32334 34.5708 4.46621 34.809 4.73609C35.0471 4.99009 35.1582 5.32347 35.1423 5.67272C35.1265 6.02197 34.9836 6.33948 34.7137 6.5776C34.5073 6.7681 34.2851 6.95861 34.0787 7.16498L33.0468 6.1331C32.65 5.70447 32.6341 5.03772 33.0151 4.60909ZM34.682 25.0721C34.428 25.2785 34.1105 25.3896 33.793 25.3737C33.4437 25.3579 33.1262 25.215 32.8881 24.9451C32.65 24.6911 32.5388 24.3577 32.5547 24.0085C32.5706 23.6592 32.7135 23.3417 32.9833 23.1036C33.1897 22.9131 33.412 22.7067 33.6342 22.5162L34.6661 23.5481C35.0471 23.9767 35.063 24.6594 34.682 25.0721ZM29.9194 10.2289C29.9194 9.86375 29.9512 9.5145 29.9988 9.16525L33.9517 13.1499L33.9676 13.1658C34.2216 13.4198 34.5073 13.6738 34.7296 13.8802C36.5711 15.547 37.7935 16.6583 37.7935 19.4523C37.7935 19.8175 37.7617 20.1667 37.7141 20.516L33.7612 16.5154C33.5072 16.2614 33.2373 16.0074 32.9992 15.801C31.1418 14.1342 29.9194 13.0229 29.9194 10.2289Z" fill="#ED602D"></path> <path fill-rule="evenodd" clip-rule="evenodd" d="M30.0782 19.0078C30.2052 19.1189 30.4116 19.3095 30.5862 19.4841C30.5426 19.5237 30.498 19.5644 30.4534 19.605C30.3194 19.7271 30.1854 19.8492 30.0782 19.9445C30.0621 19.9592 30.0461 19.974 30.0302 19.9888C28.9482 21.0001 28.3151 22.3476 28.2525 23.8339C28.189 25.3261 28.697 26.7708 29.7131 27.882C30.7291 28.9933 32.1102 29.6442 33.6025 29.7077H33.8723C35.2693 29.7077 36.6029 29.1838 37.6506 28.2471C38.492 27.4851 39.4286 26.6279 40.3176 25.3261C41.5241 23.5322 42.1274 21.6272 42.1274 19.4841C42.1274 14.8003 39.7775 12.6388 37.6921 10.7429C37.6808 10.7326 37.6696 10.7224 37.6583 10.7121L37.6506 10.7051C37.5236 10.594 37.3172 10.4035 37.1426 10.2289C37.1863 10.1892 37.231 10.1484 37.2757 10.1077C37.4096 9.98573 37.5435 9.86373 37.6506 9.7685C37.6668 9.7539 37.683 9.73922 37.699 9.72446C38.7807 8.72802 39.4137 7.36522 39.4763 5.8791C39.5398 4.38684 39.0317 2.9422 38.0157 1.83094C36.9997 0.719683 35.6186 0.0688031 34.1263 0.00530265C32.6341 -0.0581978 31.1894 0.449806 30.0941 1.46581C29.2527 2.22782 28.316 3.08508 27.427 4.38684C26.2205 6.18073 25.6173 8.08574 25.6173 10.2289C25.6014 14.8009 27.8557 16.9758 29.9036 18.8491L30.0782 19.0078ZM30.409 18.295C29.3841 17.3575 28.3835 16.4095 27.6279 15.1624C26.883 13.9328 26.3598 12.3818 26.3673 10.2315V10.2289C26.3673 8.24184 26.9221 6.48229 28.0479 4.80761C28.8826 3.58595 29.7607 2.7796 30.5975 2.02172L30.6041 2.01569C31.5467 1.14138 32.7939 0.699282 34.0945 0.754625C35.3842 0.80951 36.5787 1.37064 37.4622 2.33702C38.3408 3.29798 38.7822 4.54773 38.7269 5.84721C38.6719 7.15398 38.1103 8.345 37.1505 9.20956C37.0399 9.30793 36.9015 9.43403 36.7674 9.55624C36.7234 9.59626 36.68 9.63585 36.6381 9.67393L36.0561 10.203L36.6123 10.7592C36.797 10.944 37.0124 11.143 37.1512 11.2647C38.206 12.2236 39.2461 13.1741 40.0394 14.4393C40.821 15.6858 41.3774 17.266 41.3774 19.4841C41.3774 21.4711 40.8226 23.2306 39.6968 24.9053C38.8628 26.126 37.9854 26.9321 37.1491 27.6895C36.2346 28.5063 35.0783 28.9577 33.8723 28.9577H33.619C32.3351 28.899 31.1466 28.3385 30.2666 27.3759C29.388 26.415 28.9466 25.1652 29.0019 23.8657C29.0567 22.5634 29.6154 21.3855 30.5805 20.5014C30.6908 20.4033 30.8281 20.2782 30.9613 20.1568C31.0053 20.1168 31.0488 20.0771 31.0907 20.039L31.6727 19.5099L31.1165 18.9537C30.9318 18.769 30.7164 18.57 30.5776 18.4482L30.409 18.295C30.4093 18.2952 30.4088 18.2948 30.409 18.295ZM32.4949 4.06536L32.5421 4.027C32.928 3.71346 33.4239 3.53297 33.9398 3.55831C34.4778 3.58318 34.9858 3.80753 35.3639 4.23148C35.7474 4.64526 35.9156 5.17797 35.8916 5.70678C35.8671 6.24606 35.6422 6.75523 35.2168 7.13386C35.1377 7.20682 35.0643 7.27294 34.9942 7.33601C34.8585 7.45809 34.7356 7.56872 34.609 7.69531L34.0787 8.22564L32.5063 6.65323L32.4965 6.64266C31.8481 5.94232 31.8067 4.83957 32.4545 4.11082L32.4949 4.06536ZM34.7137 6.5776C34.9836 6.33948 35.1265 6.02197 35.1423 5.67272C35.1582 5.32347 35.0471 4.99009 34.809 4.73609C34.5708 4.46621 34.2533 4.32334 33.9041 4.30746C33.5866 4.29159 33.2691 4.40271 33.0151 4.60909C32.6341 5.03772 32.65 5.70447 33.0468 6.1331L34.0787 7.16498C34.2187 7.02496 34.3661 6.89224 34.5108 6.76188C34.5794 6.7001 34.6474 6.63885 34.7137 6.5776ZM35.1966 25.6203L35.1549 25.6542C34.769 25.9677 34.2731 26.1482 33.7572 26.1229C33.2192 26.098 32.7112 25.8737 32.3331 25.4497C31.9496 25.0359 31.7814 24.5032 31.8055 23.9744C31.83 23.4352 32.0548 22.9261 32.4801 22.5475C32.4934 22.5351 32.507 22.5226 32.5206 22.5101C32.7124 22.3329 32.9286 22.1332 33.1461 21.9468L33.6734 21.4948L35.212 23.0334L35.2266 23.0498C35.8422 23.7424 35.8971 24.8615 35.2331 25.5808L35.1966 25.6203ZM33.793 25.3737C34.1105 25.3896 34.428 25.2785 34.682 25.0721C35.063 24.6594 35.0471 23.9767 34.6661 23.5481L33.6342 22.5162C33.4278 22.6932 33.2214 22.8838 33.0277 23.0627L32.9833 23.1036C32.7135 23.3417 32.5706 23.6592 32.5547 24.0085C32.5388 24.3577 32.65 24.6911 32.8881 24.9451C33.1262 25.215 33.4437 25.3579 33.793 25.3737ZM29.461 7.5582L34.482 12.6196L34.4842 12.6217L34.4979 12.6354C34.6718 12.8093 34.8565 12.9785 35.0357 13.1427C35.1037 13.2049 35.1709 13.2665 35.2364 13.3273L35.2699 13.3576C36.1585 14.1619 36.9917 14.9159 37.5834 15.8387C38.2063 16.8099 38.5435 17.9307 38.5435 19.4523C38.5435 19.8612 38.5079 20.246 38.4572 20.6173L38.2514 22.1268L33.2309 17.0458C33.2304 17.0452 33.2299 17.0447 33.2294 17.0442C32.9855 16.8004 32.7294 16.5597 32.508 16.3678L32.4982 16.3593L32.477 16.3401C31.574 15.5298 30.73 14.7724 30.1322 13.8436C29.5066 12.8718 29.1694 11.7505 29.1694 10.2289C29.1694 9.81996 29.205 9.43526 29.2557 9.06391L29.461 7.5582ZM33.9517 13.1499L29.9988 9.16525C29.9546 9.48948 29.9241 9.81371 29.9199 10.1507C29.9196 10.1766 29.9194 10.2027 29.9194 10.2289C29.9194 13.0229 31.1418 14.1342 32.9992 15.801C33.2373 16.0074 33.5072 16.2614 33.7612 16.5154L37.7141 20.516C37.7584 20.1911 37.789 19.8663 37.793 19.5288C37.7933 19.5034 37.7935 19.4779 37.7935 19.4523C37.7935 16.6583 36.5711 15.547 34.7296 13.8802C34.6705 13.8253 34.6069 13.767 34.5406 13.7063C34.3576 13.5387 34.154 13.3522 33.9676 13.1658L33.9517 13.1499Z" fill="#181B1B"></path> <path d="M59.6706 22.5002C60.6548 23.4845 61.9725 24.0243 63.3695 24.0243C64.7665 24.0243 66.0841 23.4845 67.0684 22.5002L69.2433 20.3253C70.2275 19.3411 70.7673 18.0235 70.7673 16.6264C70.7673 15.2294 70.2275 13.9118 69.2433 12.9275L67.0684 10.7526C66.0841 9.76839 64.7665 9.22864 63.3695 9.22864C61.9725 9.22864 60.6548 9.76839 59.6706 10.7526L57.4957 12.9275C56.5114 13.9118 55.9717 15.2294 55.9717 16.6264C55.9717 18.0235 56.5114 19.3411 57.4957 20.3253L59.6706 22.5002ZM60.2738 16.6264C60.2738 16.3724 60.3691 16.1502 60.5437 15.9756L62.7186 13.8007C62.8932 13.626 63.1155 13.5308 63.3695 13.5308C63.6235 13.5308 63.8457 13.626 64.0204 13.8007L66.1953 15.9756C66.3699 16.1502 66.4651 16.3724 66.4651 16.6264C66.4651 16.8804 66.3699 17.1027 66.1953 17.2773L64.0204 19.4522C63.8457 19.6268 63.6235 19.7221 63.3695 19.7221C63.1155 19.7221 62.8932 19.6268 62.7186 19.4522L60.5437 17.2773C60.3691 17.1027 60.2738 16.8804 60.2738 16.6264Z" fill="#ED602D"></path> <path fill-rule="evenodd" clip-rule="evenodd" d="M60.2009 21.9699C61.0427 22.8117 62.1688 23.2743 63.3695 23.2743C64.5702 23.2743 65.6963 22.8117 66.5381 21.9699L68.713 19.795C69.5547 18.9533 70.0173 17.8272 70.0173 16.6264C70.0173 15.4257 69.5547 14.2996 68.713 13.4579L66.5381 11.283C65.6963 10.4412 64.5702 9.97864 63.3695 9.97864C62.1688 9.97864 61.0427 10.4412 60.2009 11.283L58.026 13.4579C57.1843 14.2996 56.7217 15.4257 56.7217 16.6264C56.7217 17.8272 57.1843 18.9533 58.026 19.795L60.2009 21.9699ZM59.5238 16.6264C59.5238 16.1699 59.7007 15.7579 60.0134 15.4452L62.1883 13.2703C62.501 12.9577 62.9129 12.7808 63.3695 12.7808C63.826 12.7808 64.238 12.9577 64.5507 13.2703L66.7256 15.4452C67.0383 15.7579 67.2151 16.1699 67.2151 16.6264C67.2151 17.083 67.0383 17.495 66.7256 17.8077L64.5507 19.9825C64.238 20.2952 63.8261 20.4721 63.3695 20.4721C62.9129 20.4721 62.501 20.2952 62.1883 19.9825L60.0134 17.8077C59.7007 17.495 59.5238 17.083 59.5238 16.6264ZM63.3695 24.0243C61.9725 24.0243 60.6548 23.4845 59.6706 22.5002L57.4957 20.3253C56.5114 19.3411 55.9717 18.0235 55.9717 16.6264C55.9717 15.2294 56.5114 13.9118 57.4957 12.9275L59.6706 10.7526C60.6548 9.76839 61.9725 9.22864 63.3695 9.22864C64.7665 9.22864 66.0841 9.76839 67.0684 10.7526L69.2433 12.9275C70.2275 13.9118 70.7673 15.2294 70.7673 16.6264C70.7673 18.0235 70.2275 19.3411 69.2433 20.3253L67.0684 22.5002C66.0841 23.4845 64.7665 24.0243 63.3695 24.0243ZM60.5437 15.9756C60.3691 16.1502 60.2738 16.3724 60.2738 16.6264C60.2738 16.8804 60.3691 17.1027 60.5437 17.2773L62.7186 19.4522C62.8932 19.6268 63.1155 19.7221 63.3695 19.7221C63.6235 19.7221 63.8457 19.6268 64.0204 19.4522L66.1953 17.2773C66.3699 17.1027 66.4651 16.8804 66.4651 16.6264C66.4651 16.3724 66.3699 16.1502 66.1953 15.9756L64.0204 13.8007C63.8457 13.626 63.6235 13.5308 63.3695 13.5308C63.1155 13.5308 62.8932 13.626 62.7186 13.8007L60.5437 15.9756Z" fill="#181B1B"></path> <path d="M78.1795 41.995C77.0683 40.9948 75.6395 40.4709 74.1314 40.5344C72.6391 40.5979 71.258 41.2488 70.242 42.3601C70.115 42.503 69.9404 42.6935 69.7816 42.8681C69.607 42.6935 69.4323 42.503 69.3053 42.3601C67.4003 40.2646 65.2413 37.8833 60.5264 37.8833C58.3833 37.8833 56.4624 38.4707 54.6844 39.6931C53.3667 40.5821 52.5095 41.5346 51.7633 42.3601C51.7475 42.376 51.7316 42.3918 51.7157 42.4077L51.684 42.4553C50.7315 43.5507 50.2393 44.9477 50.3028 46.4082C50.3663 47.9005 51.0172 49.2816 52.1285 50.2976C53.2397 51.2978 54.6685 51.8217 56.1766 51.7423C57.6689 51.6788 59.05 51.0279 60.066 49.9166L60.0819 49.9008C60.2089 49.7579 60.3835 49.5833 60.5264 49.4086C60.701 49.5833 60.8598 49.7738 61.0027 49.9166C62.9077 52.0122 65.0667 54.3934 69.7816 54.3934C71.9247 54.3934 73.8456 53.806 75.6236 52.5837C76.9413 51.6947 77.7985 50.7421 78.5447 49.9166C80.6243 47.6306 80.4656 44.0746 78.1795 41.995ZM75.3855 46.9797C74.9569 47.3607 74.2901 47.3449 73.8774 46.9321L72.8455 45.9002C73.0519 45.6939 73.2424 45.4716 73.4329 45.2652C73.671 45.0112 73.9885 44.8525 74.3219 44.8366C74.6711 44.8207 75.0045 44.9477 75.2585 45.17C75.7824 45.6462 75.83 46.4559 75.3855 46.9797ZM63.4792 46.2654L59.4786 42.2966C59.812 42.2331 60.1613 42.2172 60.5423 42.2172C63.3363 42.2172 64.4476 43.4396 66.1303 45.2811C66.3367 45.5192 66.5907 45.7732 66.8447 46.0431L70.8452 50.0119C70.5119 50.0754 70.1626 50.0913 69.7816 50.0913C66.9876 50.0913 65.8763 48.8689 64.1936 47.0274C63.9872 46.7892 63.7491 46.5194 63.4792 46.2654ZM56.8751 47.0115C56.637 47.2814 56.3195 47.4242 55.9702 47.4401C55.621 47.456 55.2876 47.329 55.0336 47.1067C54.7796 46.8686 54.6209 46.5511 54.605 46.2019C54.5891 45.8685 54.7002 45.551 54.9066 45.3129C55.3352 44.9319 56.002 44.9477 56.4147 45.3605L57.4466 46.3924C57.272 46.5829 57.0815 46.7892 56.8751 47.0115Z" fill="#ED602D"></path> <path fill-rule="evenodd" clip-rule="evenodd" d="M78.5447 49.9166C80.6243 47.6306 80.4656 44.0746 78.1795 41.995C77.0683 40.9948 75.6395 40.4709 74.1314 40.5344C72.6607 40.597 71.298 41.2301 70.2864 42.3121C70.2715 42.328 70.2567 42.344 70.242 42.3601C70.1467 42.4673 70.0246 42.6012 69.9026 42.7352C69.8619 42.7798 69.8213 42.8245 69.7816 42.8681C69.607 42.6935 69.4323 42.503 69.3053 42.3601L69.2984 42.3524C69.2881 42.3411 69.2779 42.3299 69.2676 42.3186C67.3717 40.2332 65.2102 37.8833 60.5264 37.8833C58.3833 37.8833 56.4624 38.4707 54.6844 39.6931C53.376 40.5758 52.5215 41.5212 51.7791 42.3427L51.7633 42.3601L51.7157 42.4077L51.684 42.4553C50.7315 43.5507 50.2393 44.9477 50.3028 46.4082C50.3663 47.9005 51.0172 49.2816 52.1285 50.2976C53.2397 51.2978 54.6685 51.8217 56.1766 51.7423C57.6472 51.6797 59.0099 51.0467 60.0216 49.9647C60.0365 49.9488 60.0513 49.9328 60.066 49.9166L60.0819 49.9008C60.1278 49.8491 60.1799 49.7934 60.2345 49.735C60.3309 49.6317 60.4351 49.5202 60.5264 49.4086C60.6181 49.5003 60.7054 49.5964 60.7883 49.6876C60.8634 49.7702 60.9348 49.8488 61.0027 49.9166L61.0096 49.9243C61.0205 49.9363 61.0314 49.9483 61.0423 49.9602C62.9377 52.045 65.0994 54.3934 69.7816 54.3934C71.9247 54.3934 73.8456 53.806 75.6236 52.5837C76.932 51.7009 77.7865 50.7555 78.5289 49.934L78.5447 49.9166ZM59.5364 49.3856C59.6033 49.3108 59.6606 49.2499 59.7138 49.1933C59.7945 49.1075 59.8656 49.0319 59.9459 48.9337L60.4707 48.2923L61.0567 48.8783C61.1583 48.9799 61.2528 49.0836 61.3314 49.17L61.3363 49.1755C61.4176 49.2648 61.4781 49.3314 61.533 49.3863L61.5456 49.3989L61.5576 49.4121C62.5181 50.4686 63.4696 51.5109 64.7368 52.3054C65.9834 53.087 67.5635 53.6434 69.7816 53.6434C71.7747 53.6434 73.5472 53.1011 75.1987 51.9656L75.2042 51.9619C76.4367 51.1303 77.2402 50.2414 77.9846 49.4178L77.9899 49.4119C79.7919 47.4311 79.6528 44.3507 77.6764 42.5512C76.7094 41.6815 75.472 41.2287 74.1629 41.2838C72.8749 41.3387 71.682 41.8984 70.7989 42.8624C70.7008 42.9727 70.5756 43.1101 70.4542 43.2434C70.4142 43.2873 70.3746 43.3307 70.3366 43.3726L69.8075 43.9546L69.2513 43.3984C69.0638 43.211 68.8798 43.0102 68.7476 42.8615C67.7881 41.8061 66.8372 40.7651 65.5712 39.9713C64.3246 39.1897 62.7445 38.6333 60.5264 38.6333C58.5333 38.6333 56.7608 39.1756 55.1093 40.3111L55.1039 40.3148C53.8713 41.1464 53.0678 42.0354 52.3234 42.859L52.3071 42.877L52.2986 42.8855L52.2814 42.9113L52.2499 42.9475C51.423 43.8984 50.997 45.1078 51.0521 46.3757C51.107 47.6645 51.6673 48.8588 52.6324 49.7421C53.5994 50.6115 54.834 51.0619 56.1372 50.9933L56.1447 50.9929C57.4345 50.938 58.629 50.3769 59.5125 49.4106L59.5238 49.3982L59.5364 49.3856ZM75.9232 47.5052L75.8838 47.5403C75.1586 48.185 74.0408 48.1562 73.347 47.4625L71.7848 45.9002L72.3152 45.3699C72.4418 45.2433 72.5524 45.1204 72.6745 44.9848C72.739 44.913 72.8068 44.8378 72.8818 44.7565L72.8857 44.7523C73.2417 44.3726 73.7366 44.1136 74.2862 44.0875L74.2878 44.0874C74.8421 44.0622 75.3619 44.2639 75.7524 44.6055L75.7578 44.6102L75.763 44.615C76.5841 45.3614 76.6651 46.6309 75.9574 47.465L75.9232 47.5052ZM62.958 46.8048L57.9396 41.8262L59.3383 41.5598C59.7406 41.4832 60.1449 41.4672 60.5423 41.4672C62.0641 41.4672 63.1845 41.8045 64.1572 42.4268C65.0749 43.014 65.8291 43.8395 66.6343 44.7208L66.6906 44.7825L66.6971 44.7899C66.8251 44.9377 66.966 45.0844 67.127 45.2522C67.2067 45.3353 67.2914 45.4236 67.382 45.5197L72.3842 50.4822L70.9856 50.7486C70.5832 50.8253 70.179 50.8413 69.7816 50.8413C68.2598 50.8413 67.1394 50.504 66.1667 49.8816C65.2489 49.2945 64.4948 48.469 63.6896 47.5877L63.6332 47.526L63.6268 47.5186C63.4218 47.2821 63.2051 47.0373 62.9652 46.8115L62.958 46.8048ZM66.8447 46.0431C66.7635 45.9568 66.6823 45.8722 66.6026 45.7891C66.4331 45.6124 66.2707 45.4431 66.1303 45.2811L66.12 45.2698C64.443 43.4346 63.3306 42.2172 60.5423 42.2172C60.516 42.2172 60.4898 42.2173 60.4638 42.2174C60.1131 42.2196 59.789 42.2375 59.4786 42.2966L63.4792 46.2654C63.7491 46.5194 63.9872 46.7892 64.1936 47.0274L64.2039 47.0387C65.8809 48.8739 66.9933 50.0913 69.7816 50.0913C69.8079 50.0913 69.8341 50.0912 69.8601 50.091C70.2108 50.0888 70.5349 50.071 70.8452 50.0119L66.8447 46.0431ZM54.53 47.6627L54.5207 47.6539C54.1374 47.2946 53.8815 46.7983 53.8558 46.2367C53.8312 45.715 54.0049 45.2082 54.3398 44.8217L54.3718 44.7847L54.4083 44.7523C55.1336 44.1076 56.2513 44.1364 56.9451 44.8302L58.4847 46.3698L57.9995 46.8992C57.8253 47.0892 57.6356 47.2947 57.4305 47.5156C57.052 47.9403 56.5432 48.1649 56.0043 48.1893C55.4501 48.2145 54.9302 48.0128 54.5397 47.6712L54.53 47.6627ZM56.8751 47.0115C57.0815 46.7892 57.272 46.5829 57.4466 46.3924L56.4147 45.3605C56.002 44.9477 55.3352 44.9319 54.9066 45.3129C54.7002 45.551 54.5891 45.8685 54.605 46.2019C54.6209 46.5511 54.7796 46.8686 55.0336 47.1067C55.2876 47.329 55.621 47.456 55.9702 47.4401C56.3195 47.4242 56.637 47.2814 56.8751 47.0115ZM72.8469 45.8989C72.9864 45.7593 73.1187 45.6124 73.2486 45.4682C73.3104 45.3996 73.3716 45.3316 73.4329 45.2652C73.671 45.0112 73.9885 44.8525 74.3219 44.8366C74.6711 44.8207 75.0045 44.9477 75.2585 45.17C75.7824 45.6462 75.83 46.4559 75.3855 46.9797C74.9569 47.3607 74.2901 47.3449 73.8774 46.9321L72.8455 45.9002C72.846 45.8998 72.8464 45.8993 72.8469 45.8989Z" fill="#181B1B"></path> <path d="M73.5765 8.57786C74.7671 8.57786 75.7355 7.60948 75.7355 6.41884C75.7355 5.22821 74.7671 4.25983 73.5765 4.25983C72.3859 4.25983 71.4175 5.22821 71.4175 6.41884C71.4175 7.60948 72.3859 8.57786 73.5765 8.57786Z" fill="#ED602D"></path> <path fill-rule="evenodd" clip-rule="evenodd" d="M73.5765 7.82786C74.3529 7.82786 74.9855 7.19526 74.9855 6.41884C74.9855 5.64242 74.3529 5.00983 73.5765 5.00983C72.8001 5.00983 72.1675 5.64242 72.1675 6.41884C72.1675 7.19526 72.8001 7.82786 73.5765 7.82786ZM75.7355 6.41884C75.7355 7.60948 74.7671 8.57786 73.5765 8.57786C72.3859 8.57786 71.4175 7.60948 71.4175 6.41884C71.4175 5.22821 72.3859 4.25983 73.5765 4.25983C74.7671 4.25983 75.7355 5.22821 75.7355 6.41884Z" fill="#181B1B"></path> <path d="M52.5575 7.46665C53.7481 7.46665 54.7165 6.49826 54.7165 5.30763C54.7165 4.117 53.7481 3.16449 52.5575 3.16449C51.3668 3.16449 50.3984 4.13287 50.3984 5.32351C50.3984 6.51414 51.3668 7.46665 52.5575 7.46665Z" fill="#ED602D"></path> <path fill-rule="evenodd" clip-rule="evenodd" d="M52.5575 6.71665C53.3339 6.71665 53.9665 6.08405 53.9665 5.30763C53.9665 4.53841 53.3411 3.91449 52.5575 3.91449C51.781 3.91449 51.1484 4.54709 51.1484 5.32351C51.1484 6.09273 51.7738 6.71665 52.5575 6.71665ZM54.7165 5.30763C54.7165 6.49826 53.7481 7.46665 52.5575 7.46665C51.3668 7.46665 50.3984 6.51414 50.3984 5.32351C50.3984 4.13287 51.3668 3.16449 52.5575 3.16449C53.7481 3.16449 54.7165 4.117 54.7165 5.30763Z" fill="#181B1B"></path> <path d="M47.7323 21.4209C48.9229 21.4209 49.8913 20.4526 49.8913 19.2619C49.8913 18.0713 48.9229 17.1029 47.7323 17.1029C46.5416 17.1029 45.5732 18.0713 45.5732 19.2619C45.5732 20.4526 46.5416 21.4209 47.7323 21.4209Z" fill="#ED602D"></path> <path fill-rule="evenodd" clip-rule="evenodd" d="M47.7323 20.6709C48.5087 20.6709 49.1413 20.0383 49.1413 19.2619C49.1413 18.4855 48.5087 17.8529 47.7323 17.8529C46.9558 17.8529 46.3232 18.4855 46.3232 19.2619C46.3232 20.0383 46.9558 20.6709 47.7323 20.6709ZM49.8913 19.2619C49.8913 20.4526 48.9229 21.4209 47.7323 21.4209C46.5416 21.4209 45.5732 20.4526 45.5732 19.2619C45.5732 18.0713 46.5416 17.1029 47.7323 17.1029C48.9229 17.1029 49.8913 18.0713 49.8913 19.2619Z" fill="#181B1B"></path> <path d="M46.557 35.5973C47.7476 35.5973 48.716 34.6289 48.716 33.4383C48.716 32.2477 47.7476 31.2793 46.557 31.2793C45.3663 31.2793 44.3979 32.2477 44.3979 33.4383C44.4138 34.6289 45.3822 35.5973 46.557 35.5973Z" fill="#ED602D"></path> <path fill-rule="evenodd" clip-rule="evenodd" d="M46.557 34.8473C47.3334 34.8473 47.966 34.2147 47.966 33.4383C47.966 32.6619 47.3334 32.0293 46.557 32.0293C45.7822 32.0293 45.1507 32.6592 45.148 33.4333C45.1611 34.2207 45.8035 34.8473 46.557 34.8473ZM44.3979 33.4383C44.3979 32.2477 45.3663 31.2793 46.557 31.2793C47.7476 31.2793 48.716 32.2477 48.716 33.4383C48.716 34.6289 47.7476 35.5973 46.557 35.5973C45.3822 35.5973 44.4138 34.6289 44.3979 33.4383Z" fill="#181B1B"></path> <path d="M72.5283 27.4375C72.5283 28.6281 73.4967 29.5965 74.6873 29.5965C75.878 29.5965 76.8464 28.6281 76.8464 27.4375C76.8464 26.2468 75.878 25.2784 74.6873 25.2784C73.4967 25.2943 72.5283 26.2627 72.5283 27.4375Z" fill="#ED602D"></path> <path fill-rule="evenodd" clip-rule="evenodd" d="M73.2783 27.4375C73.2783 28.2139 73.9109 28.8465 74.6873 28.8465C75.4638 28.8465 76.0964 28.2139 76.0964 27.4375C76.0964 26.6627 75.4665 26.0312 74.6923 26.0285C73.9049 26.0416 73.2783 26.6839 73.2783 27.4375ZM74.6873 25.2784C75.878 25.2784 76.8464 26.2468 76.8464 27.4375C76.8464 28.6281 75.878 29.5965 74.6873 29.5965C73.4967 29.5965 72.5283 28.6281 72.5283 27.4375C72.5283 26.2627 73.4967 25.2943 74.6873 25.2784Z" fill="#181B1B"></path> <path d="M58.5742 32.2635C58.5742 33.4541 59.5426 34.4225 60.7332 34.4225C61.9239 34.4225 62.8923 33.4541 62.8923 32.2635C62.8923 31.0729 61.9239 30.1045 60.7332 30.1045C59.5426 30.1045 58.5742 31.0729 58.5742 32.2635Z" fill="#ED602D"></path> <path fill-rule="evenodd" clip-rule="evenodd" d="M59.3242 32.2635C59.3242 33.0399 59.9568 33.6725 60.7332 33.6725C61.5097 33.6725 62.1423 33.0399 62.1423 32.2635C62.1423 31.4871 61.5097 30.8545 60.7332 30.8545C59.9568 30.8545 59.3242 31.4871 59.3242 32.2635ZM60.7332 34.4225C59.5426 34.4225 58.5742 33.4541 58.5742 32.2635C58.5742 31.0729 59.5426 30.1045 60.7332 30.1045C61.9239 30.1045 62.8923 31.0729 62.8923 32.2635C62.8923 33.4541 61.9239 34.4225 60.7332 34.4225Z" fill="#181B1B"></path> <path d="M24.4432 55.9651C23.2526 55.9651 22.2842 56.9335 22.2842 58.1241C22.2842 59.3147 23.2526 60.2831 24.4432 60.2831C25.6338 60.2831 26.6022 59.3147 26.6022 58.1241C26.6022 56.9335 25.6338 55.9651 24.4432 55.9651Z" fill="#ED602D"></path> <path fill-rule="evenodd" clip-rule="evenodd" d="M24.4432 56.7151C23.6668 56.7151 23.0342 57.3477 23.0342 58.1241C23.0342 58.9005 23.6668 59.5331 24.4432 59.5331C25.2196 59.5331 25.8522 58.9005 25.8522 58.1241C25.8522 57.3477 25.2196 56.7151 24.4432 56.7151ZM22.2842 58.1241C22.2842 56.9335 23.2526 55.9651 24.4432 55.9651C25.6338 55.9651 26.6022 56.9335 26.6022 58.1241C26.6022 59.3147 25.6338 60.2831 24.4432 60.2831C23.2526 60.2831 22.2842 59.3147 22.2842 58.1241Z" fill="#181B1B"></path> </svg> 