<?xml version="1.0" encoding="UTF-8"?> <svg xmlns="http://www.w3.org/2000/svg" width="82" height="80" viewBox="0 0 82 80" fill="none"> <path d="M78.8177 59.0086L78.8185 59.0094C80.0263 60.09 80.7602 61.7163 80.7766 63.3383V67.8916C80.7766 68.6891 80.6088 69.793 79.8959 70.8338C79.1874 71.8683 77.9129 72.8808 75.6242 73.4551C74.3322 73.7781 72.9119 74.1758 71.4122 74.5957C71.0176 74.7062 70.6175 74.8182 70.2128 74.9308L70.2108 74.9314C65.9697 76.1359 61.2039 77.4823 57.4073 78.0199C54.0634 78.4928 51.3221 78.7783 47.9255 78.7783C42.524 78.7783 35.9799 77.9873 26.6565 76.2444C18.8429 74.7699 14.8324 74.2932 12.9346 74.1394L12.5293 74.1065V74.5131V75.326C12.5293 77.693 10.5973 79.625 8.23031 79.625H2.30313C1.79348 79.625 1.31292 79.4278 0.942558 79.0574C0.572195 78.6871 0.375 78.2065 0.375 77.6969V52.5487C0.375 51.5008 1.225 50.6375 2.2862 50.6375H8.21338C9.3554 50.6375 10.4115 51.0589 11.2023 51.8342L11.4795 52.106L11.7415 51.8196C12.4582 51.0363 13.2596 50.2681 14.1462 49.5153L14.1476 49.5141C17.5317 46.6111 21.7432 45.3076 24.8288 44.7206L25.1337 44.6626V44.3522V20.271C25.1337 17.5984 27.3036 15.4131 29.9915 15.4131H37.0364H37.4114V15.0381V10.9738C37.4114 5.13513 42.1715 0.375 48.0102 0.375C53.8488 0.375 58.6089 5.13513 58.6089 10.9738V15.0381V15.4131H58.9839H66.0457C68.7183 15.4131 70.9036 17.583 70.9036 20.271V57.917V58.3682L71.3472 58.2857C72.795 58.0163 73.9382 57.8482 74.9119 57.7307C76.3277 57.5739 77.7112 58.0128 78.8177 59.0086ZM41.6088 19.2524H41.2338V19.6274V23.0483C41.2338 24.0961 40.3838 24.9595 39.3226 24.9595C38.2834 24.9595 37.4061 24.0992 37.3437 23.0377V19.6274V19.2524H36.9687H29.9238C29.3611 19.2524 28.9053 19.7082 28.9053 20.271V43.8442V44.237L29.2977 44.2188C29.8796 44.1917 30.3013 44.1977 30.5271 44.2009C30.5794 44.2017 30.6212 44.2023 30.652 44.2023H48.823C51.6303 44.2023 53.918 46.4899 53.918 49.2972V53.1922C53.918 55.9995 51.6303 58.2872 48.823 58.2872H43.2176H42.3123L42.9524 58.9273C43.3177 59.2926 43.7547 59.62 44.2793 59.8916C44.6971 60.1143 45.3488 60.3185 46.1064 60.4985C46.8743 60.6809 47.7811 60.8454 48.7261 60.9789C50.6115 61.2451 52.6798 61.3925 54.1291 61.3057C57.4184 61.1084 61.6927 60.2325 65.8311 59.3845C65.9957 59.3508 66.1601 59.3171 66.3242 59.2836L66.3286 59.2826L66.7181 59.1979L67.0134 59.1337V58.8315V20.271C67.0134 19.7082 66.5577 19.2524 65.9949 19.2524H58.95H58.575V19.6274V23.0483C58.575 24.0961 57.725 24.9595 56.6638 24.9595C55.616 24.9595 54.7526 24.1095 54.7526 23.0483V19.6274V19.2524H54.3776H41.6088ZM38.4282 58.536L38.3473 58.2702H38.0694H30.6689C29.621 58.2702 28.7577 57.4202 28.7577 56.359C28.7577 55.3111 29.6077 54.4478 30.6689 54.4478H48.8738C49.5504 54.4478 50.1294 53.8951 50.1294 53.1922V49.2972C50.1294 48.599 49.5721 48.0416 48.8738 48.0416H30.7061L30.6578 48.0319C30.6368 48.0277 30.6187 48.0261 30.6158 48.0259L30.6156 48.0258L30.5987 48.0245C30.5949 48.0243 30.5911 48.0241 30.587 48.0238C30.581 48.0235 30.5747 48.0232 30.5683 48.023C30.5466 48.022 30.5178 48.0212 30.4827 48.0204C30.4122 48.0189 30.3126 48.0179 30.1868 48.0185C29.935 48.0197 29.5762 48.0276 29.1325 48.0519C28.2453 48.1005 27.0155 48.2148 25.6197 48.4734C22.8358 48.989 19.3543 50.0855 16.6244 52.4152C14.2353 54.4434 13.1227 56.1216 12.6609 56.9565L12.6371 56.9994L12.628 57.0358C12.6269 57.0379 12.6252 57.0408 12.623 57.0446C12.6183 57.0524 12.6123 57.0617 12.604 57.074L12.5909 57.0934L12.5754 57.1163L12.5124 57.2108V57.3243V69.8899V70.2399L12.8615 70.264C15.042 70.415 19.2764 70.9201 27.3479 72.443L27.3484 72.4431C44.0106 75.5651 49.844 75.1621 56.8517 74.1732C60.3222 73.6892 64.8559 72.4097 68.8582 71.2801L69.145 71.1992C71.1277 70.64 72.9848 70.1166 74.6718 69.6949C75.6836 69.4419 76.2593 69.1213 76.5776 68.77C76.9179 68.3946 76.9203 68.032 76.9203 67.8577V63.3192C76.9203 62.7748 76.6736 62.2161 76.2721 61.8559C76.0008 61.6078 75.6983 61.4972 75.365 61.5228L75.3649 61.5226L75.352 61.524C73.2138 61.7635 70.2474 62.3776 67.1555 63.0197C67.1553 63.0197 67.1551 63.0197 67.1549 63.0198L67.0194 63.0475C62.5833 63.9549 58.0612 64.88 54.4215 65.1126C52.9302 65.2036 50.5906 65.0794 48.2947 64.7598C45.9871 64.4386 43.7872 63.9284 42.5454 63.2752L42.5444 63.2747C39.9546 61.9228 38.8779 60.0136 38.4282 58.536ZM41.2507 15.0381V15.4131H41.6257H54.3946H54.7696V15.0381V10.9738C54.7696 7.24421 51.7397 4.21433 48.0102 4.21433C44.2806 4.21433 41.2507 7.24421 41.2507 10.9738V15.0381ZM4.21433 75.4107V75.7857H4.58933H8.21338C8.33542 75.7857 8.4338 75.7342 8.49341 75.6895C8.54239 75.6528 8.67305 75.5386 8.67305 75.3429V54.9365C8.67305 54.8259 8.63454 54.7046 8.53993 54.6099C8.44533 54.5153 8.324 54.4768 8.21338 54.4768H4.58933H4.21433V54.8518V75.4107Z" fill="#ED602D" stroke="#181B1B" stroke-width="0.75"></path> </svg> 