<?xml version="1.0" encoding="UTF-8"?> <svg xmlns="http://www.w3.org/2000/svg" width="80" height="80" viewBox="0 0 80 80" fill="none"> <path d="M14.3784 10.2788L14.3784 10.2788C7.75228 14.0133 4.32438 18.7511 4.32031 23.5837C4.31624 28.4166 7.73655 33.1585 14.3784 36.9009C21.4639 40.8934 30.7462 42.8789 40.0078 42.8789C49.2694 42.8789 58.5518 40.8934 65.6372 36.9009L65.4531 36.5742L65.6373 36.9009C72.2633 33.1663 75.6912 28.4286 75.6953 23.596C75.6994 18.7631 72.2791 14.0212 65.6372 10.2788C58.5518 6.28629 49.2694 4.30078 40.0078 4.30078C30.7462 4.30078 21.4639 6.28629 14.3784 10.2788ZM75.6875 56.4023V56.4021L75.6719 34.7927L75.6712 33.82L75.0187 34.5414C68.9738 41.2255 58.1392 45.3891 46.3686 46.5154C34.6063 47.6409 21.9922 45.7244 12.4341 40.3413C9.3854 38.6235 6.88746 36.6631 4.96543 34.5412L4.3125 33.8204V34.793V56.4023C4.3125 61.3815 7.95258 66.091 14.3624 69.7132L14.3628 69.7134C21.4482 73.7059 30.7306 75.6914 39.9922 75.6914C49.2538 75.6914 58.5361 73.7059 65.6216 69.7134L65.6217 69.7134C72.0472 66.0911 75.6875 61.3817 75.6875 56.4023ZM12.4497 6.85408C20.1074 2.5413 30.0482 0.375 40.0078 0.375C49.9674 0.375 59.908 2.54125 67.5657 6.85393C75.3899 11.2695 79.625 17.2284 79.625 23.5898V56.4023C79.625 62.7636 75.39 68.7225 67.5504 73.1381C59.8927 77.4509 49.9519 79.6172 39.9922 79.6172C30.0326 79.6172 20.092 77.4509 12.4343 73.1383C4.61015 68.7226 0.375 62.7638 0.375 56.4023V23.5898C0.375 17.2285 4.60998 11.2697 12.4497 6.85408Z" fill="#ED602D" stroke="#181B1B" stroke-width="0.75"></path> <path d="M29.7906 33.4874L29.7906 33.4873L29.781 33.4857C25.3991 32.7476 21.497 31.5201 18.7012 29.8369C15.9015 28.1513 14.2812 26.0564 14.2812 23.5898C14.2812 20.5287 16.7774 18.0397 20.8904 16.2138C24.9793 14.3987 30.532 13.3065 36.3336 12.9799L36.3345 12.9798C37.3919 12.9176 38.3374 12.8711 40.0156 12.8711C44.0254 12.8711 47.955 13.2599 50.8989 13.8177L50.9015 13.8181C55.1194 14.5872 58.8495 15.8178 61.5146 17.4784C64.1821 19.1406 65.7188 21.1885 65.7188 23.5898C65.7188 26.5786 63.3433 29.0232 59.4036 30.8391C55.4848 32.6454 50.1434 33.7644 44.5054 34.1532L44.5054 34.1531L44.4951 34.1541C40.9809 34.4947 33.6738 34.2455 29.7906 33.4874ZM31.4867 29.6043L31.5715 29.7911L31.7745 29.8204C34.7189 30.2455 37.739 30.4026 40.6779 30.3554L41.2502 30.3462L41.0132 29.8252L35.2789 17.2159L35.1698 16.976L34.9071 16.9973C31.8094 17.2489 29.0996 17.721 26.8412 18.3212L26.4127 18.435L26.5961 18.8387L31.4867 29.6043ZM49.2476 17.6847L49.164 17.5006L48.9643 17.4694C46.3506 17.06 43.3624 16.8086 40 16.8086H39.4173L39.6587 17.339L45.3774 29.9015L45.4883 30.1449L45.7546 30.1194C48.8673 29.8207 51.5462 29.3171 53.7742 28.685L54.1937 28.566L54.0133 28.169L49.2476 17.6847ZM57.7367 26.8387L57.8977 27.1931L58.2458 27.019C59.3602 26.4618 60.2268 25.8797 60.8209 25.3147C61.4007 24.7633 61.7812 24.17 61.7812 23.5898C61.7812 23.1708 61.5814 22.7493 61.2677 22.352C60.9501 21.95 60.4896 21.539 59.9028 21.133C58.7282 20.3203 57.0036 19.4975 54.7687 18.7946L53.9673 18.5426L54.3148 19.3075L57.7367 26.8387ZM22.8257 20.0751L22.67 19.7332L22.3284 19.8894C21.0257 20.4852 20.0181 21.1168 19.3294 21.7272C18.6603 22.3201 18.2188 22.9588 18.2188 23.5742C18.2188 24.018 18.4399 24.4651 18.7872 24.8859C19.139 25.3123 19.6502 25.7486 20.3037 26.1785C21.6118 27.0392 23.5362 27.9042 26.0372 28.6222L26.8189 28.8466L26.4819 28.1063L22.8257 20.0751Z" fill="#ED602D" stroke="#181B1B" stroke-width="0.75"></path> <path d="M16.9688 51.2461C16.9688 52.3334 16.0873 53.2148 15 53.2148C13.9127 53.2148 13.0312 52.3334 13.0312 51.2461C13.0312 50.1588 13.9127 49.2773 15 49.2773C16.0873 49.2773 16.9688 50.1588 16.9688 51.2461Z" fill="#ED602D" stroke="#181B1B" stroke-width="0.75"></path> <path d="M31.9688 64.9961C31.9688 66.0834 31.0873 66.9648 30 66.9648C28.9127 66.9648 28.0312 66.0834 28.0312 64.9961C28.0312 63.9088 28.9127 63.0273 30 63.0273C31.0873 63.0273 31.9688 63.9088 31.9688 64.9961Z" fill="#ED602D" stroke="#181B1B" stroke-width="0.75"></path> <path d="M48.2188 54.9961C48.2188 56.0834 47.3373 56.9648 46.25 56.9648C45.1627 56.9648 44.2812 56.0834 44.2812 54.9961C44.2812 53.9088 45.1627 53.0273 46.25 53.0273C47.3373 53.0273 48.2188 53.9088 48.2188 54.9961Z" fill="#ED602D" stroke="#181B1B" stroke-width="0.75"></path> <path d="M64.4688 61.2461C64.4688 62.3334 63.5873 63.2148 62.5 63.2148C61.4127 63.2148 60.5312 62.3334 60.5312 61.2461C60.5312 60.1588 61.4127 59.2773 62.5 59.2773C63.5873 59.2773 64.4688 60.1588 64.4688 61.2461Z" fill="#ED602D" stroke="#181B1B" stroke-width="0.75"></path> </svg> 