<?xml version="1.0" encoding="UTF-8"?> <!-- Generator: Adobe Illustrator 25.2.3, SVG Export Plug-In . SVG Version: 6.00 Build 0) --> <svg xmlns="http://www.w3.org/2000/svg" xmlns:xlink="http://www.w3.org/1999/xlink" id="Layer_1" x="0px" y="0px" viewBox="0 0 88.4 88.4" style="enable-background:new 0 0 88.4 88.4;" xml:space="preserve"> <style type="text/css"> .st0{fill:#ED602D;} .st1{fill:#181B1B;} </style> <g> <g> <path class="st0" d="M74,34.4L74,34.4l0.3,0.1h8.3c1.4,0,2.7,0.6,3.6,1.5c0.9,1,1.6,2.3,1.6,3.7v38.8c0,1.4-0.6,2.7-1.6,3.6 c-0.9,0.9-2.3,1.6-3.6,1.6H5.8c-1.4,0-2.7-0.6-3.6-1.6c-0.9-0.9-1.6-2.3-1.6-3.6V39.9c0-1.4,0.6-2.7,1.6-3.6l0,0l0,0 c0.9-1,2.2-1.5,3.6-1.5h8.3h0.2l0.1-0.1l22.2-23.1l0.1-0.1v-0.1c0.2-1.7,1-3.2,2.1-4.4c1.3-1.3,3.3-2.2,5.3-2.2 c2.1,0,4,0.8,5.3,2.2l0,0l0,0c1.2,1.1,1.9,2.6,2.1,4.4v0.1l0.1,0.1L74,34.4z M37.9,16.2l-0.3-0.4l-0.3,0.3l-17.1,18l-0.6,0.6h0.9 H68h0.9l-0.6-0.6L51.1,16.2l-0.3-0.4l-0.3,0.4c-0.2,0.4-0.5,0.8-0.9,1.2l-0.2,0.2c-1.3,1.3-3.2,2.1-5.1,2.1c-2.1,0-4-0.9-5.4-2.3 C38.5,17,38.2,16.7,37.9,16.2z M83.6,79.7L83.6,79.7L83.6,79.7c0.2-0.4,0.4-0.7,0.4-1v-0.4h-0.1V39.9c0-0.4-0.1-0.8-0.4-1l0,0l0,0 c-0.3-0.2-0.6-0.3-1-0.3H5.8c-0.4,0-0.8,0.1-1,0.4l0,0l0,0c-0.2,0.3-0.3,0.6-0.3,1v38.7c0,0.5,0.2,0.8,0.4,1l0.3-0.3l-0.3,0.3 c0.3,0.3,0.7,0.4,1,0.4h76.8C83,80,83.3,79.9,83.6,79.7z M44.2,8.3c-1,0-1.9,0.5-2.6,1.1c-0.8,0.7-1.1,1.6-1.1,2.6 s0.5,1.9,1.1,2.6c0.7,0.8,1.6,1.1,2.6,1.1c0.9,0,1.9-0.4,2.5-1l0.1-0.1c0.6-0.6,1.1-1.6,1.1-2.6s-0.5-2-1.1-2.6 C46.2,8.8,45.3,8.3,44.2,8.3z"></path> <path class="st1" d="M82.6,84.1H5.8c-1.5,0-2.9-0.6-3.9-1.7c-1-1-1.7-2.5-1.7-3.9V39.9c0-1.5,0.6-2.9,1.7-3.9 c0.9-1,2.3-1.6,3.9-1.6h8.3l22.2-23.1c0.2-1.7,1-3.3,2.2-4.6c1.4-1.4,3.6-2.3,5.6-2.3c2.2,0,4.2,0.8,5.6,2.3 c1.2,1.1,2,2.7,2.2,4.6l22.4,22.8h8.3c1.4,0,2.8,0.6,3.9,1.6c1.1,1.2,1.7,2.6,1.7,4v38.8c0,1.5-0.6,2.9-1.7,3.9 C85.4,83.4,83.9,84.1,82.6,84.1z M5.8,35.2c-1.3,0-2.5,0.5-3.3,1.4c-1,0.9-1.5,2.1-1.5,3.3v38.6c0,1.1,0.6,2.4,1.5,3.3 c0.9,1,2.1,1.5,3.3,1.5h76.8c1.1,0,2.4-0.6,3.3-1.5c1-0.9,1.5-2.1,1.5-3.3V39.7c0-1.1-0.5-2.4-1.5-3.4c-0.9-0.9-2.1-1.4-3.3-1.4 h-8.7l-0.2-0.2l-22.6-23v-0.3c-0.2-1.7-0.9-3.1-2-4.1c-1.3-1.4-3.1-2.1-5-2.1c-1.8,0-3.7,0.8-5,2.1c-1.1,1.2-1.8,2.7-2,4.2l0,0.2 l-0.2,0.2L14.5,35.2H5.8z M82.8,80.5H5.9c-0.2,0-0.6,0-1-0.3l0,0L4.6,80c0,0,0,0,0,0l-0.3-0.3l0,0c-0.2-0.3-0.3-0.6-0.3-1V40 c0-0.5,0.1-0.8,0.4-1.2c0.2-0.4,0.7-0.6,1.3-0.6h76.7c0.5,0,0.8,0.1,1.2,0.4c0.4,0.2,0.6,0.7,0.6,1.3v38h0.1v0.8 c0,0.3-0.2,0.6-0.3,0.9L83.9,80L83.8,80C83.5,80.2,83.1,80.4,82.8,80.5L82.8,80.5z M5.4,79.6c0.2,0.1,0.4,0.1,0.5,0.1h76.7 c0.2-0.1,0.5-0.2,0.7-0.3l0.1-0.2c0.1-0.2,0.2-0.4,0.2-0.6v0h-0.1V39.9c0-0.3-0.1-0.6-0.2-0.7C83,39,82.8,39,82.5,39H5.8 c-0.3,0-0.6,0.1-0.7,0.2c-0.2,0.3-0.2,0.5-0.2,0.8v38.7c0,0.2,0,0.4,0.1,0.5L5.4,79.6z M69.8,35.1H18.7l1.2-1.2l17.7-18.6l0.6,0.8 c0.3,0.5,0.6,0.7,0.9,1.1c1.4,1.4,3.2,2.2,5.1,2.2c1.8,0,3.6-0.7,4.8-2l0.2-0.2c0.4-0.4,0.6-0.7,0.8-1.1l0.6-0.9l0.6,0.8 L69.8,35.1z M20.5,34.3H68L50.8,16.4l0,0c-0.2,0.4-0.5,0.8-0.9,1.2l-0.2,0.2c-1.4,1.4-3.4,2.2-5.4,2.2c-2.1,0-4.1-0.9-5.7-2.4 c-0.4-0.4-0.7-0.7-1-1.3l0,0L20.5,34.3z M44.2,16.1c-1.2,0-2.2-0.4-2.9-1.2c-0.8-0.9-1.2-1.9-1.2-2.8c0-1.2,0.4-2.2,1.2-2.9 c0.9-0.8,1.9-1.2,2.8-1.2c1.4,0,2.4,0.8,2.9,1.2c0.7,0.7,1.2,1.9,1.2,2.9c0,1-0.5,2.1-1.2,2.9L47,15 C46.3,15.6,45.2,16.1,44.2,16.1z M44.2,8.7c-1,0-1.8,0.5-2.4,1c-0.7,0.6-1,1.3-1,2.3c0,1,0.5,1.8,1,2.4c0.6,0.7,1.3,1,2.3,1 c0.8,0,1.7-0.4,2.2-0.9l0.1-0.1c0.6-0.6,1-1.5,1-2.3c0-0.8-0.4-1.7-1-2.3C46.2,9.3,45.4,8.7,44.2,8.7z"></path> </g> <g> <path class="st0" d="M42.6,50.5c-0.7-0.5-1.5-0.8-2.4-1c-0.8-0.2-1.8-0.3-2.8-0.3c-1.2,0-2.2,0.1-2.9,0.1s-1.2,0-1.2,0.1 c-1.3,0-2.1,0.6-2.4,1.6c-0.1,0.2-0.1,0.4-0.2,0.7c0,0.1,0,0.2,0,0.3c0,0.2,0,0.2,0,0.3v0.3c0,0.1,0,0.2,0,0.4v0.3 c0,0.1,0,0.2,0,0.2c0,0.2,0,0.8,0,1.9c0,0.5,0,0.9,0,1.2c0,0.2,0,0.5,0,0.7c0,5.1-0.1,8.3-0.1,9.7c0,1.3,0.8,2.1,2.4,2.1 c0.7,0,1.4-0.2,1.8-0.5c0.4-0.3,0.7-0.9,0.7-1.6c0-0.4,0-1.2,0-2.2c0-0.5,0-0.9,0-1.4c0-0.2,0-0.4,0-0.6h0.7c0.9,0,1.7,0,2.4-0.1 c0.7,0,1.2-0.1,1.5-0.2c0.7-0.2,1.4-0.4,2.1-0.8c0.6-0.4,1.2-0.9,1.6-1.6c0.5-0.6,0.8-1.2,1.1-2c0.2-0.7,0.3-1.4,0.4-2.2 c0.1-1.2-0.1-2.3-0.6-3.3C44.2,51.9,43.6,51.1,42.6,50.5z M40.6,56.7c-0.1,0.2-0.2,0.5-0.3,0.7c-0.3,0.5-0.7,0.7-1.2,0.9 c-0.2,0.1-0.6,0.1-1,0.2c-0.4,0-0.9,0-1.6,0h-0.8V58c0-0.3,0-0.7,0-0.9c0-0.7,0-1.4,0-2.5v-1.1v-0.1H36c0.2,0,0.7,0,1.4,0 c0.9,0,1.6,0.1,2.1,0.3c0.4,0.2,0.7,0.4,0.9,0.7s0.3,0.7,0.3,1.2C40.7,56.2,40.6,56.5,40.6,56.7z"></path> <path class="st1" d="M33,69.5c-1.7,0-2.8-0.9-2.8-2.5c0-0.5,0-1.2,0-2.1c0-1.7,0.1-4.3,0.1-7.6l0-5.7c0-0.1,0.1-0.2,0.1-0.3 c0-0.1,0.1-0.3,0.1-0.4c0.3-1.1,1.2-1.8,2.6-1.8c0.3-0.1,1.1-0.1,2.4-0.1c0.5,0,1.2-0.1,1.8-0.1c1.1,0,2.1,0.1,2.9,0.3 c1,0.2,1.8,0.6,2.5,1.1c1,0.6,1.6,1.4,2.2,2.2c0.6,1.1,0.8,2.3,0.7,3.5c-0.1,0.8-0.2,1.5-0.4,2.3c-0.3,0.8-0.6,1.5-1.2,2.1 c-0.4,0.8-1.2,1.3-1.7,1.7c-0.8,0.4-1.5,0.6-2.2,0.8c-0.2,0.1-0.8,0.2-1.6,0.2c-0.7,0.1-1.5,0.1-2.4,0.1h-0.3V67 c0,0.8-0.3,1.5-0.9,1.9C34.6,69.3,33.8,69.5,33,69.5z M31.1,51.8v5.5c0,3.3,0,5.9-0.1,7.6c0,0.9,0,1.6,0,2.1c0,1.1,0.7,1.7,2,1.7 c0.6,0,1.2-0.2,1.6-0.4c0.3-0.3,0.6-0.8,0.6-1.3v-4.6h1.1c0.9,0,1.7,0,2.3-0.1c0.8,0,1.2-0.1,1.4-0.2c0.7-0.2,1.4-0.4,2-0.8 c0.4-0.3,1.1-0.8,1.5-1.5c0.5-0.6,0.8-1.2,1.1-1.9c0.2-0.7,0.3-1.4,0.4-2.1c0.1-1.1-0.1-2.2-0.6-3.1c-0.5-0.7-1-1.4-2-1.9l0,0 c-0.6-0.4-1.3-0.7-2.3-0.9c-0.8-0.2-1.7-0.3-2.7-0.3c-0.7,0-1.3,0-1.8,0.1c-0.4,0-0.8,0-1.1,0c-0.3,0-0.6,0-0.8,0v0.1h-0.4 c-1.1,0-1.8,0.4-2,1.3c-0.1,0.1-0.1,0.2-0.1,0.3C31.1,51.5,31.1,51.6,31.1,51.8z M36.5,58.9h-1.2V53h2.1c1,0,1.7,0.1,2.2,0.3 c0.4,0.2,0.8,0.4,1.1,0.8c0.2,0.4,0.4,0.8,0.4,1.4c0,0.4,0,0.7-0.1,0.9c0,0.1,0,0.2,0,0.2l0,0.2c0,0.1-0.1,0.2-0.1,0.3 c-0.1,0.1-0.1,0.3-0.2,0.4c-0.4,0.6-0.9,0.9-1.4,1.1c-0.1,0.1-0.3,0.1-0.6,0.1c-0.1,0-0.3,0-0.5,0.1L36.5,58.9z M36.1,58.1h2 c0.1,0,0.3-0.1,0.5-0.1c0.1,0,0.3,0,0.4-0.1c0.5-0.2,0.8-0.4,1-0.8c0-0.1,0.1-0.2,0.1-0.3c0-0.1,0.1-0.2,0.1-0.3 c0-0.1,0-0.1,0-0.2c0-0.2,0.1-0.4,0.1-0.8c0-0.4-0.1-0.8-0.2-1c-0.1-0.2-0.4-0.4-0.8-0.6c-0.4-0.2-1.1-0.3-1.9-0.3h-1.3V58.1z"></path> </g> <g> <path class="st0" d="M12.4,52.3L12.4,52.3L12.4,52.3c1.8-1.9,4.1-2.8,6.5-2.8c1.3,0,2.5,0.2,3.6,0.6c1.1,0.5,2.1,1.1,3,2.2l0,0 l0,0c1.8,1.8,2.8,4.1,2.8,6.8c0,1.4-0.2,2.7-0.7,3.9c-0.5,1.1-1.2,2.3-2.1,3.2c-0.9,1-1.9,1.7-3,2.2s-2.3,0.7-3.7,0.7 c-1.2,0-2.3-0.2-3.5-0.6c-1.1-0.4-2.1-1-3-1.9c-1.8-1.8-2.8-4-2.8-6.8c0-1.5,0.2-2.9,0.7-4.1C10.8,54.4,11.5,53.2,12.4,52.3z M15.1,54.9L15.1,54.9L15.1,54.9c-0.5,0.5-0.8,1.3-1.1,1.9c-0.3,0.7-0.4,1.6-0.4,2.5s0.1,1.7,0.4,2.4c0.3,0.7,0.6,1.3,1.2,1.9 c0.5,0.6,1.1,1,1.7,1.3s1.4,0.4,2.1,0.4c1.4,0,2.7-0.5,3.7-1.8c0.5-0.6,0.9-1.3,1.1-2c0.3-0.7,0.4-1.5,0.4-2.3 c0-0.9-0.2-1.7-0.3-2.3l0,0l0,0c-0.3-0.7-0.7-1.4-1.3-1.9c-0.5-0.5-1.1-1-1.8-1.2l0,0l0,0c-0.1,0-0.1,0-0.2,0 c-0.6-0.1-1.2-0.3-1.9-0.3C17.3,53.2,16.1,53.8,15.1,54.9z"></path> <path class="st1" d="M18.8,69.5c-1.2,0-2.3-0.2-3.6-0.6c-1.2-0.4-2.3-1.1-3.1-2c-2-2-2.9-4.3-2.9-7.1c0-1.7,0.2-3.1,0.7-4.2 c0.7-1.6,1.4-2.7,2.3-3.5c1.8-1.9,4.1-2.9,6.8-2.9c1.3,0,2.6,0.2,3.7,0.6c1,0.5,2.2,1.1,3.2,2.3c1.9,1.9,2.9,4.3,2.9,7 c0,1.5-0.2,2.9-0.7,4c-0.4,1-1.2,2.3-2.2,3.3c-0.9,1-1.9,1.7-3.1,2.3C21.6,69.2,20.3,69.5,18.8,69.5z M18.9,49.9 c-2.4,0-4.6,0.9-6.2,2.7l0,0c-0.8,0.8-1.4,1.8-2.1,3.3c-0.4,1.1-0.7,2.4-0.7,3.9c0,2.6,0.9,4.7,2.7,6.5c0.8,0.8,1.8,1.4,2.9,1.8 c1.2,0.4,2.2,0.6,3.4,0.6c1.4,0,2.5-0.2,3.5-0.7c1.1-0.5,2.1-1.2,2.9-2.1c1-1,1.6-2.2,2-3.1c0.4-1.1,0.7-2.3,0.7-3.7 c0-2.6-0.9-4.8-2.7-6.5c-0.9-1.1-1.9-1.7-2.9-2.1C21.3,50.1,20.1,49.9,18.9,49.9z M19,65.7c-0.6,0-1.5-0.1-2.3-0.4 c-0.8-0.4-1.4-0.8-1.8-1.4c-0.6-0.6-1-1.3-1.3-2c-0.3-0.7-0.4-1.5-0.4-2.5c0-1.1,0.1-2,0.4-2.6c0.1-0.1,0.1-0.3,0.2-0.4 c0.3-0.5,0.5-1.2,1-1.6c1.2-1.3,2.5-1.8,4-1.5c0.4,0,0.9,0.1,1.3,0.2c0.2,0,0.4,0.1,0.5,0.1l0.2,0l0.1,0c0.8,0.2,1.5,0.9,2,1.3 c0.5,0.4,1,1.1,1.4,2c0,0.2,0.1,0.4,0.1,0.5c0.1,0.5,0.2,1.2,0.2,1.9c0,1-0.1,1.8-0.4,2.4c-0.2,0.7-0.6,1.4-1.2,2.1 C22,65,20.7,65.7,19,65.7z M18,53.8c-1,0-1.8,0.5-2.6,1.3l0,0c-0.3,0.3-0.6,0.9-0.8,1.4c-0.1,0.1-0.1,0.3-0.2,0.4 c-0.2,0.6-0.4,1.3-0.4,2.3c0,0.9,0.1,1.7,0.4,2.3c0.3,0.6,0.5,1.2,1.1,1.8c0.4,0.5,0.9,0.9,1.6,1.2c0.5,0.2,1.2,0.4,1.9,0.4 c1.4,0,2.6-0.6,3.4-1.7c0.5-0.6,0.9-1.3,1-1.9c0.3-0.6,0.4-1.3,0.4-2.2c0-0.7-0.1-1.3-0.2-1.8c0-0.2-0.1-0.3-0.1-0.4 c-0.3-0.7-0.7-1.3-1.2-1.7c-0.4-0.4-1-0.9-1.6-1.1h-0.1c-0.3,0-0.4-0.1-0.6-0.1c-0.4-0.1-0.8-0.2-1.3-0.2 C18.5,53.8,18.2,53.8,18,53.8z"></path> </g> <g> <path class="st0" d="M58.4,64.7c-0.2,0-0.4,0-0.8,0c-0.3,0-0.6,0-0.9,0c-0.7,0-1.4,0-2.3,0.1c-0.7,0-1.5,0-2.6,0v-2.3 c0-0.4,0-0.8,0-1.1h5c0.7,0,1.2-0.2,1.6-0.5c0.3-0.3,0.6-0.8,0.6-1.5c0-0.8-0.2-1.4-0.7-1.7c-0.2-0.2-0.5-0.2-0.8-0.3 s-0.7-0.1-1-0.1c-1.2,0-2.5,0.1-4.1,0.1H52l0.1-2.2v-1.5h0.5c1.7,0,3.2,0,4.3,0s1.7,0,1.9-0.1h0.1c0.5-0.2,0.8-0.4,1-0.8 c0.2-0.3,0.3-0.8,0.2-1.4c0-0.2-0.1-0.6-0.2-0.7c-0.1-0.2-0.2-0.5-0.4-0.7s-0.4-0.3-0.7-0.4c-0.2-0.1-0.5-0.2-0.8-0.2h-0.7h-1.7 c-1.3,0-2.9,0-4.7,0h-1.1c-0.7,0-1.3,0.2-1.7,0.5c-0.2,0.2-0.4,0.4-0.6,0.7c-0.2,0.2-0.2,0.6-0.2,0.9c0,0.9,0,1.9,0,3.2v1.8v1.3 c0,1.2,0,2.4,0,3.7c0,0.7,0,1.2,0,1.7s0,1,0,1.3v0.9v0.3c0,0.2,0,0.2,0,0.4c0,0.2,0,0.3,0,0.5c0,0.4,0.1,0.7,0.2,1.1 s0.4,0.6,0.7,0.7c0.2,0.2,0.6,0.2,1.1,0.3c0.4,0.1,0.9,0.1,1.5,0.1h7.7c0.7,0,1.2-0.2,1.6-0.6c0.3-0.4,0.6-0.9,0.6-1.7 c0-0.7-0.2-1.2-0.5-1.6C59.5,65,59,64.7,58.4,64.7z"></path> <path class="st1" d="M58.5,69.2h-7.7c-0.6,0-1.1,0-1.6-0.1c-0.1,0-0.2,0-0.3-0.1c-0.3-0.1-0.6-0.1-0.9-0.3 c-0.5-0.2-0.8-0.5-0.9-0.9l-0.1-0.2c-0.1-0.3-0.2-0.6-0.2-1V51.5c0-0.4,0-0.9,0.3-1.2c0.2-0.3,0.4-0.5,0.6-0.7 c0.5-0.4,1.2-0.6,2-0.6H58c0.4,0,0.8,0.2,1,0.2c0.3,0.1,0.5,0.2,0.8,0.5c0.2,0.2,0.3,0.5,0.4,0.7l0.1,0.1c0.2,0.2,0.3,0.7,0.3,0.9 c0.1,0.6,0,1.2-0.3,1.6c-0.2,0.5-0.6,0.7-1.2,0.9l-0.2,0c-0.3,0.1-0.8,0.1-2,0.1h-4.4v1.1L52.4,57h0c0.9,0,1.6,0,2.3-0.1 c0.6,0,1.2,0,1.8,0c0.3,0,0.8,0,1.1,0.1c0.1,0,0.2,0,0.2,0.1c0.2,0.1,0.5,0.1,0.7,0.3c0.5,0.3,0.8,1,0.8,2c0,0.9-0.4,1.5-0.7,1.8 c-0.6,0.4-1.2,0.6-1.9,0.6h-4.6v2.7h2.2c0.9-0.1,1.6-0.1,2.3-0.1h1.7c0.3,0,0.6,0.1,0.8,0.1c0.3,0.1,0.6,0.1,0.9,0.1l0.2,0 l0.1,0.2c0.4,0.5,0.6,1.1,0.6,1.8c0,0.9-0.3,1.5-0.7,1.9C59.9,68.9,59.3,69.2,58.5,69.2z M49.8,49.8c-0.6,0-1.1,0.2-1.5,0.4 c-0.2,0.2-0.3,0.3-0.5,0.6c-0.1,0.1-0.1,0.5-0.1,0.7v15.1c0,0.3,0.1,0.5,0.1,0.8l0.1,0.2c0,0.1,0.1,0.3,0.5,0.4l0.1,0.1 c0.1,0.1,0.3,0.1,0.5,0.1c0.1,0,0.3,0,0.4,0.1c0.4,0.1,0.9,0.1,1.4,0.1h7.7c0.6,0,1-0.2,1.3-0.5c0.3-0.4,0.5-0.8,0.5-1.4 c0-0.5-0.1-0.9-0.3-1.2c-0.4,0-0.7-0.1-1-0.1c-0.2-0.1-0.4-0.1-0.6-0.1h-1.7c-0.7,0-1.4,0-2.3,0.1l-3,0V61h5.4 c0.6,0,1-0.1,1.4-0.4c0.1-0.1,0.5-0.6,0.5-1.2c0-0.7-0.2-1.2-0.5-1.4c-0.1-0.1-0.2-0.1-0.4-0.2c-0.1,0-0.2,0-0.3-0.1 c-0.2-0.1-0.6-0.1-0.9-0.1c-0.6,0-1.1,0-1.7,0c-0.7,0-1.5,0.1-2.4,0.1h-0.8l0.1-2.6v-1.9h5.2c0.8,0,1.6,0,1.7-0.1l0.2,0 c0.4-0.2,0.6-0.3,0.7-0.6c0.2-0.2,0.3-0.6,0.2-1.2c0-0.2-0.1-0.5-0.1-0.5l-0.1-0.2c-0.1-0.2-0.1-0.3-0.2-0.4 C59.1,50.1,59,50,58.7,50c-0.1-0.1-0.4-0.2-0.7-0.2H49.8z"></path> </g> <g> <path class="st0" d="M79.2,61.1v-9.5c0-1.6-0.7-2.4-2.3-2.4c-0.4,0-0.7,0.1-1.1,0.2c-0.3,0.1-0.6,0.2-0.8,0.5 c-0.2,0.2-0.3,0.5-0.5,0.8c-0.1,0.3-0.2,0.7-0.2,1.2l0.1,5.3c0,1,0,2.1,0,3.2l-0.6-0.9l-6.2-8.7c-0.2-0.2-0.4-0.5-0.6-0.7 s-0.4-0.4-0.6-0.5c-0.2-0.2-0.4-0.2-0.7-0.3c-0.2-0.1-0.5-0.1-0.7-0.1c-0.7,0-1.3,0.2-1.8,0.5c-0.3,0.2-0.5,0.4-0.7,0.7 c-0.2,0.2-0.2,0.6-0.2,0.9v3.2v6c0,1.6,0,2.9,0,4c0,1.4,0,2.2,0,2.5c0,0.7,0.2,1.2,0.7,1.6c0.4,0.3,1,0.5,1.7,0.5s1.3-0.2,1.7-0.7 c0.4-0.4,0.6-1,0.6-1.7c0-0.2,0-0.8,0-1.8c0-0.8,0-1.9,0-3.2s0-2.4,0-3.4c0-0.3,0-0.7,0-0.9l7,10c0.2,0.2,0.3,0.5,0.5,0.7 s0.3,0.4,0.5,0.5c0.2,0.2,0.4,0.2,0.7,0.3c0.2,0.1,0.5,0.1,0.7,0.1c0.7,0,1.3-0.2,1.9-0.6c0.2-0.2,0.5-0.4,0.7-0.7 c0.2-0.2,0.2-0.6,0.2-0.9C79.2,65.7,79.2,62.5,79.2,61.1"></path> <path class="st1" d="M64.7,69.5c-0.7,0-1.4-0.2-1.9-0.6c-0.6-0.5-0.9-1.1-0.9-1.9V51.3c0-0.4,0-0.9,0.3-1.2 c0.2-0.3,0.4-0.5,0.8-0.7c0.6-0.4,1.3-0.6,2-0.6c0.2,0,0.6,0,0.9,0.1c0,0,0.1,0,0.2,0c0.2,0,0.4,0.1,0.6,0.3 c0.2,0.1,0.4,0.3,0.6,0.5c0.1,0.1,0.2,0.2,0.3,0.4c0.1,0.1,0.2,0.2,0.3,0.3l6.2,8.6v-2l-0.1-5.3c0-0.4,0.1-0.9,0.2-1.3l0-0.1 c0.1-0.1,0.1-0.2,0.2-0.3c0.1-0.2,0.2-0.4,0.4-0.5c0.2-0.3,0.6-0.5,0.9-0.6l0.2-0.1c0.3-0.1,0.6-0.2,1-0.2c1.8,0,2.7,0.9,2.7,2.8 v15.2c0,0.4,0,0.9-0.3,1.2c-0.1,0.2-0.3,0.4-0.5,0.5c-0.1,0.1-0.1,0.1-0.2,0.2c-0.7,0.5-1.4,0.7-2.2,0.7c-0.2,0-0.6,0-0.9-0.1 c0,0-0.1,0-0.1,0c-0.2,0-0.4-0.1-0.6-0.3c-0.2-0.1-0.3-0.2-0.4-0.4c0-0.1-0.1-0.1-0.2-0.2c-0.1-0.1-0.2-0.3-0.3-0.4 c-0.1-0.1-0.1-0.2-0.2-0.3l-6.4-9.1v8.1c0,0.8-0.2,1.5-0.7,2C66.2,69.2,65.6,69.5,64.7,69.5z M65,49.6c-0.6,0-1.1,0.2-1.6,0.4 c-0.2,0.2-0.4,0.3-0.6,0.6c-0.1,0.1-0.1,0.5-0.1,0.7V67c0,0.6,0.2,1,0.6,1.3c0.4,0.3,0.9,0.4,1.5,0.4c0.6,0,1.1-0.2,1.4-0.6 c0.3-0.4,0.5-0.8,0.5-1.5V56.2l7.7,11c0.1,0.1,0.2,0.2,0.3,0.4c0.1,0.1,0.1,0.2,0.2,0.3c0.1,0.1,0.1,0.2,0.2,0.2 c0.1,0.1,0.1,0.2,0.2,0.2l0.1,0.1c0.1,0.1,0.1,0.1,0.3,0.1c0.1,0,0.2,0,0.2,0.1c0.2,0.1,0.4,0.1,0.6,0.1c0.6,0,1.1-0.2,1.7-0.5 c0,0,0.1-0.1,0.2-0.2c0.2-0.1,0.3-0.3,0.4-0.4c0.1-0.1,0.1-0.5,0.1-0.7V51.6c0-1.4-0.6-2-1.9-2c-0.3,0-0.5,0.1-0.8,0.1l-0.2,0.1 c-0.3,0.1-0.5,0.2-0.6,0.3c-0.1,0.1-0.2,0.3-0.3,0.4c-0.1,0.1-0.1,0.2-0.2,0.3c-0.1,0.2-0.2,0.6-0.2,1l0.1,5.3v4.4l-1.3-1.9 L67.3,51c-0.1-0.1-0.2-0.2-0.3-0.3c-0.1-0.1-0.2-0.2-0.3-0.3c-0.2-0.2-0.4-0.4-0.5-0.4l-0.1-0.1c-0.1-0.1-0.1-0.1-0.3-0.1 c-0.1,0-0.2,0-0.2-0.1C65.4,49.6,65.1,49.6,65,49.6z"></path> </g> </g> </svg> 