<?xml version="1.0" encoding="UTF-8"?> <!-- Generator: Adobe Illustrator 25.2.3, SVG Export Plug-In . SVG Version: 6.00 Build 0) --> <svg xmlns="http://www.w3.org/2000/svg" xmlns:xlink="http://www.w3.org/1999/xlink" id="Layer_1" x="0px" y="0px" viewBox="0 0 50 50" style="enable-background:new 0 0 50 50;" xml:space="preserve"> <style type="text/css"> .st0{fill:#E64A22;} </style> <path class="st0" d="M27.4,28.1c0-2.7,0.4-5.1,1.3-7c0.8-2,1.9-3.7,3.3-4.9c1.3-1.3,2.8-2.3,4.5-2.8c1.8-0.6,3.5-0.9,5.1-0.9v3.7 c-1.8,0-3.5,0.6-5.1,1.9c-1.5,1.2-2.4,2.8-2.7,4.9c0.2-0.1,0.5-0.1,0.7-0.2c0.2-0.1,0.5-0.1,0.7-0.2c0.4-0.1,0.7-0.1,1.2-0.1 c2.1,0,3.9,0.8,5.2,2.4c1.4,1.5,2.1,3.4,2.1,5.5s-0.7,4-2.2,5.6c-1.4,1.5-3.3,2.3-5.7,2.3c-2.7,0-4.7-1-6.2-2.9 C28.1,33.1,27.4,30.8,27.4,28.1z M6.4,28.1c0-2.7,0.4-5.1,1.3-7c0.8-2,1.9-3.7,3.3-4.9c1.3-1.3,2.8-2.3,4.5-2.8 c1.8-0.6,3.5-0.9,5.1-0.9v3.7c-1.8,0-3.5,0.6-5.1,1.9c-1.5,1.2-2.4,2.8-2.7,4.9c0.2-0.1,0.5-0.1,0.7-0.2c0.2-0.1,0.5-0.1,0.7-0.2 c0.4-0.1,0.7-0.1,1.2-0.1c2.1,0,3.9,0.8,5.2,2.4c1.4,1.5,2.1,3.4,2.1,5.5s-0.7,4-2.2,5.6c-1.4,1.5-3.3,2.3-5.7,2.3 c-2.7,0-4.7-1-6.2-2.9C7.1,33.1,6.4,30.8,6.4,28.1z"></path> </svg> 